<?xml version="1.0" standalone="no"?><!DOCTYPE svg PUBLIC "-//W3C//DTD SVG 1.1//EN" "http://www.w3.org/Graphics/SVG/1.1/DTD/svg11.dtd"><svg t="1575943157974" class="icon" viewBox="0 0 4039 1024" version="1.1" xmlns="http://www.w3.org/2000/svg" p-id="1774" width="158.774913" height="40" xmlns:xlink="http://www.w3.org/1999/xlink"><defs><style type="text/css"></style></defs><path d="M807.293324 1019.157401c-6.513687-6.485243-8.675435-202.692296 0-211.310843 8.646991-8.618547 205.536701-8.618547 212.021944 0 6.485243 8.618547 6.485243 204.797156 0 211.282399-6.485243 6.485243-205.536701 6.485243-212.021944 0m-267.146512 0c-6.485243-6.456799-8.646991-202.663852 0-211.282399 8.675435-8.618547 205.536701-8.618547 212.050388 0 6.485243 8.618547 6.485243 204.797156 0 211.282399-6.513687 6.485243-205.536701 6.485243-212.050388 0m-267.089624 0c-6.542131-6.456799-8.675435-202.663852 0-211.282399 8.618547-8.618547 205.508257-8.618547 211.9935 0 6.485243 8.618547 6.485243 204.797156 0 211.282399-6.485243 6.485243-205.536701 6.485243-212.021944 0m-267.118068 0c-6.513687-6.456799-8.675435-202.663852 0-211.282399 8.646991-8.618547 205.536701-8.618547 212.021944 0 6.485243 8.618547 6.485243 204.797156 0 211.282399-6.485243 6.485243-205.536701 6.485243-212.021944 0m801.382648-267.118068c-6.513687-6.456799-8.675435-202.663852 0-211.282399 8.646991-8.618547 205.536701-8.618547 212.021944 0 6.485243 8.618547 6.485243 204.797156 0 211.282399-6.485243 6.456799-205.536701 6.456799-212.021944 0m-267.146512 0c-6.485243-6.456799-8.646991-202.663852 0-211.282399 8.675435-8.618547 205.536701-8.618547 212.050388 0 6.485243 8.618547 6.485243 204.797156 0 211.282399-6.513687 6.456799-205.536701 6.456799-212.050388 0m-534.236136 0c-6.513687-6.456799-8.675435-202.663852 0-211.282399 8.646991-8.618547 205.536701-8.618547 212.021944 0 6.485243 8.618547 6.485243 204.797156 0 211.282399-6.485243 6.456799-205.536701 6.456799-212.021944 0m801.382648-267.118068c-6.513687-6.485243-8.675435-202.663852 0-211.282399 8.646991-8.646991 205.536701-8.646991 212.021944 0 6.485243 8.618547 6.485243 204.797156 0 211.282399-6.485243 6.456799-205.536701 6.456799-212.021944 0m-801.382648 0c-6.513687-6.485243-8.675435-202.663852 0-211.282399 8.646991-8.646991 205.536701-8.646991 212.021944 0 6.485243 8.618547 6.485243 204.797156 0 211.282399-6.485243 6.456799-205.536701 6.456799-212.021944 0m801.382648-267.146512c-6.513687-6.456799-8.675435-202.663852 0-211.282399 8.646991-8.618547 205.536701-8.618547 212.021944 0 6.485243 8.618547 6.485243 204.8256 0 211.282399-6.485243 6.485243-205.536701 6.485243-212.021944 0m-267.146512 0c-6.485243-6.456799-8.646991-202.663852 0-211.282399 8.675435-8.618547 205.536701-8.618547 212.050388 0 6.485243 8.618547 6.485243 204.8256 0 211.282399-6.513687 6.485243-205.536701 6.485243-212.050388 0m-267.089624 0c-6.542131-6.456799-8.675435-202.663852 0-211.282399 8.618547-8.618547 205.508257-8.618547 211.9935 0 6.485243 8.618547 6.485243 204.8256 0 211.282399-6.485243 6.485243-205.536701 6.485243-212.021944 0m-267.118068 0C-0.603011 211.28951-2.764759 15.082457 5.882232 6.46391c8.646991-8.618547 205.536701-8.618547 212.021944 0 6.485243 8.618547 6.485243 204.8256 0 211.282399-6.485243 6.485243-205.536701 6.485243-212.021944 0" fill="#DD3D3D" p-id="1775"></path><path d="M1595.221936 294.232358c-4.920821-26.48141-13.653144-46.591353-26.168526-60.301385-12.57227-13.738476-31.629783-20.621936-57.200983-20.621936-16.725101 0-30.634241 2.844405-41.698976 8.476327-11.093179 5.631922-19.910835 12.629158-26.566743 20.963264a76.713601 76.713601 0 0 0-14.022916 26.452966c-2.702185 9.329648-4.295051 17.663755-4.7786 25.030764h170.436744z m-170.436744 66.189303c1.479091 33.848419 10.069193 58.367189 25.827197 73.556312 15.729559 15.217566 38.371023 22.812128 67.867501 22.812127 21.162373 0 39.366564-5.262149 54.612575-15.814891 15.24601-10.524298 24.604103-21.70281 28.045833-33.478646h92.215608c-14.762462 45.624255-37.375481 78.221136-67.867502 97.847529-30.520465 19.626394-67.412397 29.411147-110.675796 29.411148-30.008472 0-57.087207-4.7786-81.179317-14.335801a168.786989 168.786989 0 0 1-61.240038-40.817211 183.634783 183.634783 0 0 1-38.740795-63.259566c-9.102096-24.518771-13.653144-51.483729-13.653144-80.923321 0-28.444049 4.664824-54.897015 14.022916-79.44423a186.308523 186.308523 0 0 1 39.821669-63.629338 187.560062 187.560062 0 0 1 61.638255-42.296301c23.864557-10.296746 50.289079-15.445119 79.330454-15.445119 32.426216 0 60.728045 6.257691 84.848599 18.773072a169.21365 169.21365 0 0 1 59.391176 50.374412 206.759795 206.759795 0 0 1 33.563978 72.077221 267.658505 267.658505 0 0 1 7.395453 84.592603h-275.224622z m587.483396-66.189303c-4.920821-26.48141-13.653144-46.591353-26.168526-60.301385-12.57227-13.738476-31.629783-20.621936-57.200983-20.621936-16.725101 0-30.634241 2.844405-41.698976 8.476327-11.064735 5.631922-19.910835 12.629158-26.566742 20.963264a76.713601 76.713601 0 0 0-14.022917 26.452966c-2.702185 9.329648-4.266607 17.663755-4.7786 25.030764h170.436744z m-170.436744 66.189303c1.479091 33.848419 10.069193 58.367189 25.827197 73.556312 15.729559 15.217566 38.371023 22.812128 67.867502 22.812127 21.162373 0 39.366564-5.262149 54.612574-15.814891 15.24601-10.524298 24.604103-21.70281 28.045833-33.478646h92.244052c-14.790906 45.624255-37.403925 78.221136-67.895946 97.847529S1975.120659 534.75524 1931.828816 534.75524c-30.008472 0-57.058763-4.7786-81.179317-14.335801a168.786989 168.786989 0 0 1-61.240038-40.817211 183.634783 183.634783 0 0 1-38.740795-63.259566c-9.102096-24.518771-13.653144-51.483729-13.653144-80.923321 0-28.444049 4.693268-54.897015 14.022916-79.44423a186.308523 186.308523 0 0 1 39.821669-63.629338 187.560062 187.560062 0 0 1 61.638255-42.296301c23.864557-10.296746 50.289079-15.445119 79.330454-15.445119 32.45466 0 60.756489 6.257691 84.8486 18.773072a169.21365 169.21365 0 0 1 59.391175 50.374412 206.759795 206.759795 0 0 1 33.563978 72.077221 267.658505 267.658505 0 0 1 7.395453 84.592603h-275.224622z m353.587978-145.633533h-62.719129V144.901099h62.719129V115.489952c0-33.848419 10.581186-61.552923 31.743559-83.113513C2248.29731 10.787406 2280.268421 0.007111 2323.076716 0.007111c9.358092 0 18.68774 0.369773 28.045832 1.109318 9.329648 0.739545 18.431744 1.33687 27.306288 1.820419v77.993584a323.010625 323.010625 0 0 0-38.399467-2.218636c-14.222025 0-24.461882 3.29951-30.605797 9.955417-6.143915 6.599019-9.215872 17.749087-9.215872 33.450202v22.783684h72.304773v69.887029h-72.304773v310.409911h-104.787878V214.759684z m309.329037 120.631213c0 15.189122 1.479091 30.036916 4.437272 44.514938 2.929737 14.449577 7.964334 27.448508 15.10379 38.968347 7.139456 11.51984 16.611325 20.707268 28.444049 27.590728 11.775836 6.855016 26.538298 10.296746 44.258941 10.296746 17.692199 0 32.568437-3.413286 44.628714-10.296746 12.060277-6.88346 21.645922-16.070888 28.785378-27.590728a118.327245 118.327245 0 0 0 15.132234-38.968347 227.552395 227.552395 0 0 0 0-89.371203 114.259746 114.259746 0 0 0-15.132234-38.996792 83.767725 83.767725 0 0 0-28.785378-27.590728c-12.060277-7.111012-26.936515-10.666519-44.657158-10.666519-17.692199 0-32.426216 3.555506-44.258941 10.666519-11.80428 7.111012-21.276149 16.29844-28.415605 27.590728-7.111012 11.292288-12.174053 24.262774-15.10379 38.968347a227.552395 227.552395 0 0 0-4.437272 44.88471z m-104.787878 0c0-30.406689 4.693268-57.997417 14.022916-82.772183a178.002861 178.002861 0 0 1 39.850114-63.231122 178.600186 178.600186 0 0 1 61.979583-40.447438c24.09211-9.585645 51.170845-14.364245 81.179317-14.364245 30.008472 0 57.172539 4.7786 81.520646 14.364245 24.348106 9.557201 45.140706 23.03968 62.349356 40.447438a178.002861 178.002861 0 0 1 39.850113 63.259566c9.358092 24.746323 14.022916 52.337051 14.022916 82.743739 0 30.406689-4.664824 57.855196-14.022916 82.373967a178.62863 178.62863 0 0 1-39.821669 62.889794 173.70781 173.70781 0 0 1-62.3778 40.106109c-24.348106 9.301204-51.512173 13.966028-81.520646 13.966029-30.008472 0-57.087207-4.664824-81.179317-13.966029a174.362023 174.362023 0 0 1-61.979583-40.106109 178.62863 178.62863 0 0 1-39.82167-62.86135c-9.386536-24.547215-14.05136-51.995722-14.05136-82.402411z m715.908279-56.632102c-6.88346-43.661616-32.710657-65.478202-77.48159-65.478202-16.725101 0-30.748017 3.811503-42.06875 11.406064a90.736518 90.736518 0 0 0-27.67606 29.439591 126.86046 126.86046 0 0 0-15.10379 39.707893 205.934918 205.934918 0 0 0 0 84.962376c2.929737 14.222025 7.736781 27.078735 14.364245 38.598575a82.487743 82.487743 0 0 0 26.936515 28.330273c11.320732 7.367009 25.087652 11.036291 41.329204 11.036291 25.087652 0 44.372717-6.997236 57.912084-20.963264s22.015694-32.710657 25.457424-56.26233h101.090152c-6.88346 50.488188-26.566742 89.001431-59.021403 115.482841-32.45466 26.452966-74.039861 39.707893-124.698712 39.707893-28.529382 0-54.726351-4.7786-78.590909-14.335801a174.276691 174.276691 0 0 1-60.870265-40.10611 182.497021 182.497021 0 0 1-39.110568-61.410703c-9.329648-23.779225-14.022916-49.890863-14.022916-78.334912 0-29.411147 4.323496-56.745879 12.913598-82.004194a184.374328 184.374328 0 0 1 38.00125-65.478202 173.935362 173.935362 0 0 1 61.240038-43.035846c24.120554-10.296746 51.654394-15.445119 82.658408-15.445119 22.613019 0 44.372717 2.958181 65.307537 8.817655a174.532687 174.532687 0 0 1 56.063222 26.879627c16.497549 12.003389 29.866252 26.964959 40.219885 44.856266 10.32519 17.919751 16.213108 39.110568 17.720643 63.629338h-102.569242z m515.178623 246.4108h-99.611061v-52.96282h-2.218636c-13.283371 22.072582-30.492021 38.00125-51.654394 47.786003a152.858321 152.858321 0 0 1-64.937765 14.734018c-28.017389 0-51.028625-3.697726-68.976819-11.036292-17.948195-7.338565-32.084888-17.777531-42.438522-31.26001-10.32519-13.482479-17.578423-29.92314-21.759698-49.293538a305.574423 305.574423 0 0 1-6.257691-64.340439V144.901099h104.759434v214.781017c0 31.402231 4.920821 54.811683 14.762462 70.256802 9.841641 15.445119 27.306287 23.1819 52.393939 23.1819 28.529382 0 49.208205-8.476327 61.979583-25.400536 12.799822-16.895765 19.171289-44.74249 19.17129-83.483285V144.901099h104.787878v380.29694z m154.365856-123.589395c0 11.292288 2.332412 20.963264 7.02568 29.069819 4.664824 8.07811 10.694963 14.705574 18.061971 19.853946 7.395453 5.148373 15.87178 8.959876 25.457424 11.37762 9.585645 2.474632 19.569506 3.697726 29.866252 3.697726 7.395453 0 15.160678-0.853321 23.267233-2.559964 8.106554-1.706643 15.502007-4.408828 22.12947-8.106554 6.655908-3.697726 12.174053-8.561659 16.611325-14.705574 4.437272-6.115471 6.627464-13.852252 6.627463-23.1819 0-15.672671-10.438966-27.448508-31.345342-35.270621-20.906376-7.879002-50.061527-15.701115-87.437008-23.551673-15.24601-3.44173-30.150692-7.480785-44.657157-12.145609a152.744545 152.744545 0 0 1-38.740796-18.4033 89.541867 89.541867 0 0 1-27.306287-28.671602c-6.88346-11.51984-10.32519-25.599644-10.32519-42.296301 0-24.518771 4.807044-44.628713 14.392689-60.301385a105.897196 105.897196 0 0 1 38.00125-37.147928 166.96657 166.96657 0 0 1 53.133484-19.142846c19.683282-3.669282 39.821669-5.518146 60.500493-5.518145 20.678824 0 40.703435 1.991083 60.130721 5.887918 19.45573 3.925279 36.778156 10.524298 52.05261 19.853946 15.217566 9.329648 27.875168 21.70281 37.972806 37.147929s16.127776 34.957737 18.090415 58.480965h-99.611061c-1.479091-20.109943-9.102096-33.706199-22.869015-40.81721-13.795364-7.111012-30.008472-10.666519-48.724657-10.666519-5.887918 0-12.287829 0.369773-19.171289 1.109318a64.198219 64.198219 0 0 0-18.829961 4.7786 38.740795 38.740795 0 0 0-14.364245 10.666519c-3.953723 4.664824-5.916362 10.894071-5.916362 18.773072 0 9.301204 3.44173 16.895765 10.32519 22.75524 6.88346 5.916362 15.87178 10.694963 26.936515 14.364245 11.093179 3.697726 23.750781 6.997236 38.00125 9.955417 14.278913 2.929737 28.785378 6.115471 43.519395 9.528757a443.72717 443.72717 0 0 1 44.657158 12.515381c14.506465 4.892376 27.420064 11.37762 38.740795 19.484174 11.320732 8.106554 20.422827 18.147304 27.306287 30.150693 6.88346 12.031833 10.32519 26.851183 10.32519 44.514937 0 25.030763-5.034597 45.965584-15.132234 62.889793a120.830322 120.830322 0 0 1-39.48034 40.817211 162.131082 162.131082 0 0 1-55.693449 21.70281 325.627477 325.627477 0 0 1-128.766212-0.369773 171.716726 171.716726 0 0 1-56.432994-22.072582 126.405355 126.405355 0 0 1-40.589658-40.817211c-10.581186-16.924209-16.355328-38.115026-17.35087-63.629339h99.611061zM1566.123673 882.142415v32.397772h-224.651102v-32.426216h224.651102z m-143.073568-76.827378h223.172011s-0.369773 10.552742-1.450646 15.644227c-9.471868 102.313246-19.31351 144.922432-36.067055 161.27776-10.524298 10.581186-21.105485 13.482479-37.830586 14.591798-14.222025 1.080874-40.077666 0.711101-65.933306-0.739545-0.711101-9.813197-5.802586-24.035222-12.742934-33.848419 28.045833 2.559964 56.432994 2.901293 68.095054 2.901293 8.732323 0 14.222025-0.369773 19.285066-4.35194 12.401606-10.211414 21.84503-47.700671 29.126706-124.158275H1379.729818c11.263844-41.158539 25.827197-110.675796 34.189747-162.017306l34.587964 3.271066c-2.161748 11.66206-4.35194 24.035222-6.911904 36.778156h197.344815v32.397772h-203.517174c-4.010611 20.394383-8.390995 40.39055-12.401605 58.253413z m385.559089-85.901029v-50.260635h34.929293v331.657616h-34.929293v-82.999736h-104.133665v-33.137318h104.105221V833.702199H1717.929565v-32.397773h90.679629v-48.781544H1712.809636v-33.137318h95.771114z m223.911557 164.548826v33.137317h-105.242983v84.08061H1892.007147v-331.657615h35.299065v50.232191h98.700852v33.137317h-98.700852v48.781545h91.020958v32.028h-91.020958v50.260635h105.242983z m305.830419 19.654838l-22.954348 21.105485a402.483299 402.483299 0 0 0-25.855641-47.672227c-13.084263 33.108873-30.20758 61.524479-52.05261 83.341065-5.461257-4.35194-18.943737-14.165137-26.225414-18.545521 25.884085-23.665449 44.799378-56.802767 57.912085-96.140887a683.282954 683.282954 0 0 0-46.98957-61.496034l20.764156-18.204192c12.373161 13.454035 24.746323 28.72849 36.778156 44.401161 5.091485-21.475257 9.102096-44.401161 12.373162-68.436383l30.20758 3.271066a643.489729 643.489729 0 0 1-20.024611 96.482216c15.302899 22.186359 28.045833 44.059833 36.067055 61.894251z m42.580742-215.179234v270.161581c0 20.394383-5.091485 30.577353-18.204192 36.038611-13.454035 5.461257-34.587964 6.200803-67.696837 6.200803a165.658144 165.658144 0 0 0-12.771378-33.848419c22.954348 1.422202 48.070443 1.080874 55.35212 0.711101 6.911904-0.369773 9.471868-2.559964 9.471868-9.471868V720.494882h-233.013652v216.971209c23.665449-23.295676 41.130095-54.612575 53.873029-91.73206a1582.85446 1582.85446 0 0 0-48.781545-61.524478l19.654839-19.683283c12.742934 14.563353 26.225414 30.947126 38.968347 47.330899 5.83103-22.186359 10.552742-45.851808 13.823808-70.626575l30.236025 3.271066c-5.461257 34.986181-12.031833 67.355509-21.133929 96.851988 13.482479 18.573964 25.855641 36.038611 34.218191 50.260635l-21.475257 23.295677c-6.172359-11.66206-14.933126-25.116096-24.746323-39.679449-12.742934 32.397772-29.496479 60.415161-49.890862 82.260191a260.519048 260.519048 0 0 0-24.746323-17.464647v60.813378h-33.848419V688.438438h300.71049z" fill="#0c0c0c" p-id="1776"></path></svg>